<?xml version="1.0" encoding="iso-8859-1"?>
<!-- Generator: Adobe Illustrator 19.1.0, SVG Export Plug-In . SVG Version: 6.00 Build 0)  -->
<svg version="1.1" id="Capa_1" xmlns="http://www.w3.org/2000/svg" xmlns:xlink="http://www.w3.org/1999/xlink" x="0px" y="0px"
	 viewBox="0 0 412.615 412.615" style="enable-background:new 0 0 412.615 412.615;" xml:space="preserve">
<g>
	<g>
		<g>
			<g>
				<path style="fill:#231F20;" d="M167.291,81.24h-52.379c-3.207,0-5.345-2.138-5.345-5.345s2.138-5.345,5.345-5.345h52.379
					c3.207,0,5.345,2.138,5.345,5.345S170.498,81.24,167.291,81.24z"/>
				<path style="fill:#231F20;" d="M232.497,117.585H114.912c-3.207,0-5.345-2.138-5.345-5.345s2.138-5.345,5.345-5.345h117.584
					c3.207,0,5.345,2.138,5.345,5.345S235.703,117.585,232.497,117.585z"/>
				<path style="fill:#231F20;" d="M232.497,153.929H114.912c-3.207,0-5.345-2.138-5.345-5.345c0-3.207,2.138-5.345,5.345-5.345
					h117.584c3.207,0,5.345,2.138,5.345,5.345C237.841,151.791,235.703,153.929,232.497,153.929z"/>
			</g>
			<g>
				<path style="fill:#231F20;" d="M167.291,191.342h-52.379c-3.207,0-5.345-2.138-5.345-5.345c0-3.207,2.138-5.345,5.345-5.345
					h52.379c3.207,0,5.345,2.138,5.345,5.345C172.635,189.204,170.498,191.342,167.291,191.342z"/>
				<path style="fill:#231F20;" d="M232.497,227.686H114.912c-3.207,0-5.345-2.138-5.345-5.345s2.138-5.345,5.345-5.345h117.584
					c3.207,0,5.345,2.138,5.345,5.345C237.841,224.48,235.703,227.686,232.497,227.686z"/>
				<path style="fill:#231F20;" d="M232.497,264.031H114.912c-3.207,0-5.345-2.138-5.345-5.345c0-3.207,2.138-5.345,5.345-5.345
					h117.584c3.207,0,5.345,2.138,5.345,5.345C237.841,260.824,235.703,264.031,232.497,264.031z"/>
			</g>
			<g>
				<path style="fill:#231F20;" d="M298.771,81.24h-9.621c-3.207,0-5.345-2.138-5.345-5.345s2.138-5.345,5.345-5.345h9.621
					c3.207,0,5.345,2.138,5.345,5.345S300.909,81.24,298.771,81.24z"/>
				<path style="fill:#231F20;" d="M298.771,117.585h-9.621c-3.207,0-5.345-2.138-5.345-5.345s2.138-5.345,5.345-5.345h9.621
					c3.207,0,5.345,2.138,5.345,5.345S300.909,117.585,298.771,117.585z"/>
				<path style="fill:#231F20;" d="M298.771,153.929h-9.621c-3.207,0-5.345-2.138-5.345-5.345c0-3.207,2.138-5.345,5.345-5.345
					h9.621c3.207,0,5.345,2.138,5.345,5.345C304.116,151.791,300.909,153.929,298.771,153.929z"/>
			</g>
			<g>
				<path style="fill:#231F20;" d="M298.771,191.342h-9.621c-3.207,0-5.345-2.138-5.345-5.345c0-3.207,2.138-5.345,5.345-5.345
					h9.621c3.207,0,5.345,2.138,5.345,5.345C304.116,189.204,300.909,191.342,298.771,191.342z"/>
				<path style="fill:#231F20;" d="M298.771,227.686h-9.621c-3.207,0-5.345-2.138-5.345-5.345s2.138-5.345,5.345-5.345h9.621
					c3.207,0,5.345,2.138,5.345,5.345C304.116,224.48,300.909,227.686,298.771,227.686z"/>
				<path style="fill:#231F20;" d="M298.771,264.031h-9.621c-3.207,0-5.345-2.138-5.345-5.345c0-3.207,2.138-5.345,5.345-5.345
					h9.621c3.207,0,5.345,2.138,5.345,5.345C304.116,260.824,300.909,264.031,298.771,264.031z"/>
			</g>
			<path style="fill:#231F20;" d="M298.771,317.478h-35.275c-3.207,0-5.345-2.138-5.345-5.345c0-3.207,2.138-5.345,5.345-5.345
				h35.275c3.207,0,5.345,2.138,5.345,5.345C304.116,314.271,300.909,317.478,298.771,317.478z"/>
		</g>
		<path style="fill:#231F20;" d="M352.219,412.615c-3.207,0-6.414-1.069-9.621-3.207l-33.137-24.586l-24.586,17.103
			c-5.345,4.276-12.827,4.276-18.172,0l-25.655-17.103l-25.655,17.103c-5.345,4.276-12.827,4.276-18.172,0l-25.655-17.103
			l-25.655,17.103c-5.345,4.276-12.827,4.276-18.172,0l-24.586-17.103l-33.137,24.586c-5.345,3.207-11.758,4.276-17.103,1.069
			s-8.552-8.552-8.552-13.896V16.034C44.361,7.483,51.844,0,60.396,0h291.823c8.552,0,16.034,7.483,16.034,16.034V396.58
			c0,6.414-3.207,11.758-8.552,13.896C357.564,411.546,354.357,412.615,352.219,412.615z M241.048,349.547
			c3.207,0,6.414,1.069,9.621,3.207l25.655,17.103l25.655-17.103c5.345-4.276,12.827-4.276,18.172,0l16.034,11.758V32.069H76.43
			v332.443l16.034-11.758c5.345-4.276,12.827-4.276,18.172,0l25.655,17.103l25.655-17.103c5.345-4.276,12.827-4.276,18.172,0
			l25.655,17.103l25.655-17.103C234.635,349.547,237.841,349.547,241.048,349.547L241.048,349.547z"/>
	</g>
</g>
<g>
</g>
<g>
</g>
<g>
</g>
<g>
</g>
<g>
</g>
<g>
</g>
<g>
</g>
<g>
</g>
<g>
</g>
<g>
</g>
<g>
</g>
<g>
</g>
<g>
</g>
<g>
</g>
<g>
</g>
</svg>
