<?xml version="1.0" encoding="iso-8859-1"?>
<!-- Generator: Adobe Illustrator 18.0.0, SVG Export Plug-In . SVG Version: 6.00 Build 0)  -->
<!DOCTYPE svg PUBLIC "-//W3C//DTD SVG 1.1//EN" "http://www.w3.org/Graphics/SVG/1.1/DTD/svg11.dtd">
<svg version="1.1" id="Capa_1" xmlns="http://www.w3.org/2000/svg" xmlns:xlink="http://www.w3.org/1999/xlink" x="0px" y="0px"
	 viewBox="0 0 60.113 60.113" style="enable-background:new 0 0 60.113 60.113;" xml:space="preserve">
<path style="fill:#231F20;" d="M53.371,23.109c3.718,0,6.742-3.024,6.742-6.742s-3.024-6.742-6.742-6.742H6.742
	C3.024,9.625,0,12.649,0,16.367s3.024,6.742,6.742,6.742h5.21l-1.946,6.346H6.342c-1.657,0-3,1.343-3,3s1.343,3,3,3h1.824
	L4.744,46.608c-0.485,1.584,0.404,3.262,1.988,3.748c1.583,0.485,3.262-0.405,3.748-1.988l3.961-12.913h31.23l3.961,12.913
	c0.396,1.291,1.584,2.121,2.867,2.121c0.291,0,0.588-0.043,0.881-0.133c1.584-0.486,2.474-2.164,1.988-3.748l-3.421-11.153h1.824
	c1.657,0,3-1.343,3-3s-1.343-3-3-3h-3.664l-1.946-6.346H53.371z M43.831,29.455h-27.55l1.947-6.346h23.656L43.831,29.455z"/>
<g>
</g>
<g>
</g>
<g>
</g>
<g>
</g>
<g>
</g>
<g>
</g>
<g>
</g>
<g>
</g>
<g>
</g>
<g>
</g>
<g>
</g>
<g>
</g>
<g>
</g>
<g>
</g>
<g>
</g>
</svg>
